<?xml version="1.0" encoding="UTF-8" standalone="no"?>
<!-- Created with Inkscape (http://www.inkscape.org/) -->

<svg
   xmlns:dc="http://purl.org/dc/elements/1.1/"
   xmlns:cc="http://creativecommons.org/ns#"
   xmlns:rdf="http://www.w3.org/1999/02/22-rdf-syntax-ns#"
   xmlns:svg="http://www.w3.org/2000/svg"
   xmlns="http://www.w3.org/2000/svg"
   xmlns:sodipodi="http://sodipodi.sourceforge.net/DTD/sodipodi-0.dtd"
   xmlns:inkscape="http://www.inkscape.org/namespaces/inkscape"
   width="32px"
   height="32px"
   id="svg2985"
   version="1.1"
   inkscape:version="0.48.0 r9654"
   sodipodi:docname="icon.svg">
  <defs
     id="defs2987" />
  <sodipodi:namedview
     id="base"
     pagecolor="#ffffff"
     bordercolor="#666666"
     borderopacity="1.0"
     inkscape:pageopacity="0.0"
     inkscape:pageshadow="2"
     inkscape:zoom="16"
     inkscape:cx="23.477387"
     inkscape:cy="21.797611"
     inkscape:current-layer="layer1"
     showgrid="true"
     inkscape:grid-bbox="true"
     inkscape:document-units="px"
     inkscape:window-width="1017"
     inkscape:window-height="610"
     inkscape:window-x="20"
     inkscape:window-y="20"
     inkscape:window-maximized="0" />
  <metadata
     id="metadata2990">
    <rdf:RDF>
      <cc:Work
         rdf:about="">
        <dc:format>image/svg+xml</dc:format>
        <dc:type
           rdf:resource="http://purl.org/dc/dcmitype/StillImage" />
        <dc:title></dc:title>
      </cc:Work>
    </rdf:RDF>
  </metadata>
  <g
     id="layer1"
     inkscape:label="Layer 1"
     inkscape:groupmode="layer">
    <path
       id="path2998"
       style="fill:#ffffff;fill-opacity:1;stroke:#000000;stroke-width:0.0375;stroke-linecap:butt;stroke-linejoin:bevel;stroke-miterlimit:4;stroke-opacity:1;stroke-dasharray:none;stroke-dashoffset:0"
       d="M 6.492109,7.3235897 6.05191,6.8381019 6.249023,6.6907865 C 6.428716,6.5564905 9.490698,4.636473 10.383637,4.0981749 l 0.375,-0.2260646 0.143902,0.2307644 c 0.07915,0.1269203 0.226253,0.3905917 0.326903,0.5859362 l 0.183001,0.355172 -0.920653,0.5906572 C 9.462205,6.2951839 7.121235,7.7365793 7.006567,7.7805816 6.965725,7.7962543 6.734219,7.5906079 6.492109,7.3235897 z M 8.274,14.565407 C 7.148553,12.98238 5.477387,10.55494 5.477387,10.503207 c 0,-0.06478 0.832987,-0.514315 0.944976,-0.509972 0.07524,0.0029 3.675354,4.638893 3.730238,4.803546 0.01149,0.03446 -0.259451,0.203332 -0.602083,0.375273 L 8.92755,15.484674 8.274,14.565407 z M 6.471883,7.3821126 C 6.19991,7.1101396 5.977593,6.8614089 5.977844,6.8293776 5.978096,6.7973466 6.421065,6.491458 6.962219,6.1496257 8.766422,5.0099615 10.729074,3.802389 10.777154,3.802389 c 0.05279,0 0.726535,1.2456396 0.691227,1.2779531 C 11.341214,5.1967231 8.02654,7.2663852 7.268758,7.7025612 L 6.96638,7.8766089 6.471883,7.3821126 l 0,0 z m 2.50676,9.9933354 c 0.05156,-0.03299 0.782813,-0.438625 1.625,-0.901415 1.924777,-1.057685 1.936629,-1.064674 1.937105,-1.142396 5.63e-4,-0.08788 -0.449165,-0.705516 -2.273878,-3.122998 C 9.410644,11.074264 8.558955,9.930616 8.374226,9.667199 L 8.038355,9.1882596 9.117874,8.5192421 c 4.299787,-2.6647349 4.420904,-2.7439783 4.422104,-2.8932431 0.0016,-0.1991492 -1.960499,-4.0039126 -2.113592,-4.0985295 -0.113768,-0.070313 -8.0102428,4.830582 -8.0102428,4.9715042 0,0.034045 0.421875,0.5154931 0.9375,1.0698853 0.515625,0.5543919 0.9374998,1.0240625 0.9374998,1.0437131 0,0.01965 -0.457031,0.3096538 -1.0156248,0.6444525 C 3.7169245,9.591823 3.2220347,9.889979 3.1757633,9.919594 c -0.063693,0.04077 0.3371595,0.666656 1.6501477,2.57654 2.642034,3.843126 3.29755,4.830899 3.222523,4.855908 -0.111308,0.0371 -1.376448,-0.304708 -1.85025,-0.499893 C 5.106185,16.402294 4.2743437,15.848879 3.4466682,15.021596 2.3307459,13.906204 1.5401712,12.4744 1.1933796,10.940681 1.0379038,10.253075 1.0043874,8.6271921 1.1301806,7.874894 1.5762793,5.2070302 3.3626509,2.9017829 5.884893,1.7391112 6.484026,1.4629305 7.06384,1.2844614 7.822393,1.1427407 c 0.831734,-0.155393 2.520959,-0.096339 3.347952,0.1170415 2.530273,0.6528607 4.551047,2.360445 5.57232,4.7086926 0.466547,1.0727475 0.61738,1.7402604 0.655733,2.9019542 0.03642,1.103227 -0.03484,1.791889 -0.269641,2.605759 -0.837964,2.904543 -3.366664,5.246411 -6.263419,5.800652 -0.577017,0.110401 -2.02328,0.18599 -1.886695,0.09861 l 0,0 z m 0.21875,-0.1904 c 0.309375,-0.17112 1.179336,-0.644916 1.933246,-1.05288 0.75391,-0.407964 1.37961,-0.76859 1.390445,-0.801391 0.01084,-0.0328 -1.021605,-1.421534 -2.294309,-3.086075 C 8.954071,10.580162 7.93462,9.1981359 7.96133,9.1735334 7.98804,9.1489304 9.233331,8.3771996 10.728643,7.4585765 c 1.495313,-0.9186233 2.751232,-1.7022221 2.790931,-1.7413308 0.05438,-0.053566 -0.19231,-0.5760206 -1,-2.1178941 C 11.929875,2.4736185 11.424157,1.5525247 11.395757,1.5524766 11.301427,1.5523141 3.4126131,6.4481354 3.4301606,6.4959458 3.4396406,6.5217698 3.890362,7.0065282 4.4317682,7.5731871 4.973174,8.1398459 5.416143,8.618129 5.416143,8.6360384 c 0,0.017909 -0.50625,0.3216431 -1.1249998,0.6749637 -0.61875,0.3533209 -1.1239405,0.6576409 -1.1226455,0.6762689 0.00129,0.01863 1.1515012,1.693243 2.5560143,3.721368 1.698206,2.45222 2.523513,3.694446 2.463668,3.708233 C 8.047198,17.449352 7.120651,17.247553 6.603643,17.071764 4.1013916,16.220968 2.1772405,14.268262 1.3548353,11.745063 0.894313,10.332147 0.8465664,8.5646502 1.2294828,7.1047391 1.886635,4.5992731 3.8392112,2.434809 6.291143,1.493802 c 2.118139,-0.8129033 4.592531,-0.6827231 6.644921,0.3495958 2.40791,1.2111403 4.053842,3.4796071 4.480282,6.1748449 0.100348,0.6342369 0.08451,1.9274133 -0.0319,2.6047203 -0.512842,2.983842 -2.644839,5.469555 -5.530804,6.44841 -0.78239,0.26537 -1.363252,0.364699 -2.3125,0.395447 l -0.90625,0.02936 0.5625,-0.311127 0,0 z M 7.114663,13.010487 5.356868,10.468585 5.894525,10.161363 C 6.338956,9.90741 6.445831,9.868619 6.510904,9.93764 c 0.0433,0.04592 0.691047,0.885061 1.439443,1.864749 0.748395,0.979687 1.579108,2.064403 1.846029,2.410479 l 0.485311,0.62923 -0.655404,0.355145 c -0.360472,0.19533 -0.677549,0.355146 -0.704615,0.355146 -0.02707,0 -0.840218,-1.143856 -1.807005,-2.541902 z M 6.37854,7.3866165 C 6.091539,7.0824789 5.863751,6.8104686 5.872345,6.7821492 5.880945,6.7538302 6.997567,6.0457231 8.353741,5.2085787 l 2.465771,-1.5220807 0.35934,0.6673205 c 0.197636,0.3670262 0.360003,0.6961782 0.360815,0.7314487 0.0015,0.066042 -4.37454,2.7937164 -4.544393,2.8325993 -0.05542,0.012686 -0.312058,-0.2083831 -0.616734,-0.53125 l 0,0 z M 11.125,2.59375 4.59375,6.625 6.8125,8.96875 12.59375,5.40625 11.125,2.59375 z m -4.46875,6.25 -2.40625,1.375 4.40625,6.375 2.78125,-1.5 -4.78125,-6.25 z m 11.622267,0.385371 c 0,4.997176 -4.051011,9.048187 -9.048187,9.048187 -4.9971757,0 -9.048187,-4.051011 -9.048187,-9.048187 0,-4.9971757 4.0510113,-9.0481871 9.048187,-9.0481871 4.997176,0 9.048187,4.0510114 9.048187,9.0481871 z"
       inkscape:connector-curvature="0"
       inkscape:export-xdpi="87.410004"
       inkscape:export-ydpi="87.410004" />
  </g>
</svg>
