<?xml version="1.0" encoding="UTF-8" standalone="no"?>
<!-- Created with Inkscape (http://www.inkscape.org/) -->

<svg
   xmlns:dc="http://purl.org/dc/elements/1.1/"
   xmlns:cc="http://creativecommons.org/ns#"
   xmlns:rdf="http://www.w3.org/1999/02/22-rdf-syntax-ns#"
   xmlns:svg="http://www.w3.org/2000/svg"
   xmlns="http://www.w3.org/2000/svg"
   xmlns:sodipodi="http://sodipodi.sourceforge.net/DTD/sodipodi-0.dtd"
   xmlns:inkscape="http://www.inkscape.org/namespaces/inkscape"
   width="32px"
   height="32px"
   id="svg2985"
   version="1.1"
   inkscape:version="0.48.0 r9654"
   sodipodi:docname="icon_128.svg">
  <defs
     id="defs2987" />
  <sodipodi:namedview
     id="base"
     pagecolor="#ffffff"
     bordercolor="#666666"
     borderopacity="1.0"
     inkscape:pageopacity="0.0"
     inkscape:pageshadow="2"
     inkscape:zoom="1.4142136"
     inkscape:cx="23.477387"
     inkscape:cy="19.297611"
     inkscape:current-layer="layer1"
     showgrid="true"
     inkscape:grid-bbox="true"
     inkscape:document-units="px"
     inkscape:window-width="1017"
     inkscape:window-height="610"
     inkscape:window-x="20"
     inkscape:window-y="20"
     inkscape:window-maximized="0" />
  <metadata
     id="metadata2990">
    <rdf:RDF>
      <cc:Work
         rdf:about="">
        <dc:format>image/svg+xml</dc:format>
        <dc:type
           rdf:resource="http://purl.org/dc/dcmitype/StillImage" />
        <dc:title></dc:title>
      </cc:Work>
    </rdf:RDF>
  </metadata>
  <g
     id="layer1"
     inkscape:label="Layer 1"
     inkscape:groupmode="layer">
    <path
       id="path2998"
       style="fill:#ffffff;fill-opacity:1;stroke:#000000;stroke-width:0.26387322;stroke-linecap:butt;stroke-linejoin:bevel;stroke-miterlimit:4;stroke-opacity:1;stroke-dasharray:none;stroke-dashoffset:0"
       d="m -2.4915583,3.1031166 -3.092244,-3.42201397 1.384651,-1.03836803 c 1.26228,-0.9466 22.7716343,-14.4800506 29.0442193,-18.2743036 l 2.634244,-1.593441 1.010861,1.626568 c 0.556001,0.894612 1.589349,2.753128 2.29638,4.130035 l 1.285518,2.503468 -6.467266,4.1633116 C 18.37233,-4.1457134 1.9278327,6.0141186 1.1223297,6.3242736 0.83542975,6.4347446 -0.79081925,4.9852236 -2.4915583,3.1031166 z M 10.025605,54.14785 C 2.1197327,42.989714 -9.6196253,25.879639 -9.6196253,25.514995 c 0,-0.456609 5.851443,-3.625206 6.638126,-3.594593 0.528535,0.02044 25.8180793,32.697743 26.2036203,33.858314 0.08071,0.242874 -1.822553,1.433206 -4.229424,2.645153 l -4.376132,2.203537 -4.59096,-6.479556 z M -2.6336383,3.5156216 c -1.910515,-1.917031 -3.472214,-3.67023697 -3.470451,-3.89601197 0.0018,-0.225775 3.113472,-2.38186303 6.91489005,-4.79130503 C 13.484697,-13.204743 27.271643,-21.716448 27.609387,-21.716448 c 0.370831,0 5.103655,8.780026 4.855629,9.007791 C 31.571712,-11.888333 8.2872837,2.6999046 2.9641307,5.7743386 l -2.12409995,1.226794 -3.47366905,-3.485511 0,0 z M 14.975476,73.954729 c 0.362191,-0.232549 5.498987,-3.091692 11.415057,-6.353721 13.520887,-7.455206 13.604143,-7.504467 13.607487,-8.0523 0.004,-0.619435 -3.155228,-4.972907 -15.9732,-22.012792 C 18.010132,29.540155 12.027314,21.479025 10.729658,19.622302 L 8.3702807,16.246445 15.953525,11.530802 C 46.158027,-7.2518704 47.008831,-7.8104264 47.017261,-8.8625364 47.028501,-10.26626 33.245441,-37.084548 32.170016,-37.751465 c -0.799181,-0.495608 -56.269159,34.0488816 -56.269159,35.0421856 0,0.239968 2.963525,3.63351003 6.58561,7.541204 3.622086,3.90769 6.585609,7.2182154 6.585609,7.3567244 0,0.138504 -3.210483,2.182629 -7.13441,4.542494 -3.923925,2.359863 -7.400353,4.461447 -7.725393,4.670192 -0.447421,0.287368 2.368427,4.698999 11.59171,18.16102 18.5593667,27.088692 23.1641377,34.051119 22.6370987,34.227397 -0.7819,0.261476 -9.669066,-2.14777 -12.99736,-3.523554 C -12.227189,67.09535 -18.070584,63.194541 -23.884715,57.363348 -31.723679,49.501387 -37.277191,39.409161 -39.713281,28.598574 -40.805444,23.751913 -41.040885,12.2917 -40.157232,6.9890446 c 3.133688,-18.8047266 15.682324,-35.0535126 33.4001947,-43.2487296 4.2087,-1.946688 8.28169,-3.204648 13.610261,-4.203578 5.8426413,-1.09531 17.7088563,-0.67906 23.5181933,0.82497 17.774284,4.601764 31.969519,16.637858 39.143599,33.1897356 3.27734,7.561377 4.33688,12.266414 4.6063,20.4547394 0.25583,7.776215 -0.24474,12.630322 -1.89413,18.366976 -5.88641,20.472986 -23.649644,36.979899 -43.998337,40.886521 -4.053343,0.778175 -14.212835,1.310971 -13.253373,0.695099 l 0,0 z m 1.536643,-1.342055 c 2.17325,-1.206154 8.284423,-4.545756 13.580377,-7.421336 5.295955,-2.875579 9.691279,-5.417493 9.76739,-5.648691 C 39.936038,59.311443 32.683468,49.52281 23.743167,37.790114 14.802866,26.057417 7.6415787,16.316059 7.8292067,16.142646 8.0168347,15.969229 16.76457,10.529601 27.268614,4.0545856 c 10.504052,-6.475016 19.326445,-11.998297 19.605316,-12.273959 0.382,-0.377566 -1.35091,-4.0601436 -7.024651,-14.9282056 -4.14243,-7.934853 -7.694922,-14.427282 -7.894422,-14.427621 -0.662635,-0.0011 -56.078797,34.5075826 -55.955533,34.8445786 0.06659,0.182021 3.232755,3.59889603 7.035944,7.593053 3.803187,3.994156 6.914889,7.3653854 6.914889,7.4916224 0,0.126233 -3.556229,2.267136 -7.902731,4.757555 -4.346502,2.490421 -7.895289,4.635453 -7.886192,4.766754 0.0091,0.131318 8.088894,11.93501 17.9551077,26.230464 C 4.0456457,65.393566 9.8431387,74.149531 9.4227497,74.246716 8.4323987,74.475657 1.9237307,73.05325 -1.7080703,71.81418 -19.285512,65.817253 -32.802002,52.053394 -38.579111,34.268349 c -3.235008,-9.95909 -3.570412,-22.417483 -0.880558,-32.7078244 4.616265,-17.6600486 18.332432,-32.9165086 35.5563957,-39.5492976 14.8791873,-5.72984 32.2609263,-4.81225 46.6782493,2.464163 16.91473,8.536854 28.47682,24.526388 31.47241,43.5240636 0.70492,4.4704884 0.59366,13.5855824 -0.22408,18.3596544 -3.60253,21.031931 -18.57907,38.552748 -38.851966,45.452314 -5.496017,1.870494 -9.57637,2.570622 -16.244505,2.787356 l -6.36609,0.206945 3.951367,-2.193013 0,0 z M 1.8816667,43.187832 -10.466229,25.270961 -6.6893763,23.105467 c 3.121972,-1.790012 3.872732,-2.063435 4.329847,-1.576933 0.304168,0.323673 4.854364,6.238446 10.111584,13.143889 5.2572143,6.905429 11.0926833,14.551165 12.9677103,16.990519 l 3.40914,4.435195 -4.603984,2.503276 c -2.532191,1.37681 -4.759545,2.50329 -4.949674,2.50329 -0.190158,0 -5.9022393,-8.062597 -12.6935803,-17.916871 z M -3.2893403,3.5473676 c -2.016081,-2.143747 -3.616213,-4.06104097 -3.555843,-4.26065297 0.06041,-0.199609 7.904292,-5.19077903 17.4309403,-11.09148163 l 17.32118,-10.728551 2.524239,4.703681 c 1.388323,2.587024 2.528895,4.907087 2.534599,5.155695 0.01054,0.465507 -30.7296163,19.6918126 -31.9227743,19.9658836 -0.38930595,0.08942 -2.192098,-1.468812 -4.332341,-3.744574 l 0,0 z M 30.052884,-30.235671 -15.826866,-1.8209684 -0.24092225,14.699208 40.37034,-10.41146 30.052884,-30.235671 z M -1.3385243,13.818132 -18.24159,23.509966 12.710777,68.444845 32.248088,57.871934 -1.3385243,13.818132 z m 81.6423603,2.716329 c 0,35.223141 -28.45693,63.777128 -63.560347,63.777128 -35.103415,0 -63.560354,-28.553987 -63.560354,-63.777128 0,-35.223135 28.456939,-63.777124 63.560354,-63.777124 35.103417,0 63.560347,28.553989 63.560347,63.777124 z"
       inkscape:connector-curvature="0"
       inkscape:export-xdpi="87.410004"
       inkscape:export-ydpi="87.410004"
       inkscape:export-filename="/Users/hemantasapkota/Desktop/Chrome Extensions/firstFive/icon_128.png" />
  </g>
</svg>
